<svg xmlns="http://www.w3.org/2000/svg" width="1200" height="630" viewBox="0 0 1200 630">
  <defs>
    <linearGradient id="bg" x1="0%" y1="0%" x2="100%" y2="100%">
      <stop offset="0%" style="stop-color:#000000;stop-opacity:1" />
      <stop offset="100%" style="stop-color:#111111;stop-opacity:1" />
    </linearGradient>
    <linearGradient id="accent" x1="0%" y1="0%" x2="100%" y2="0%">
      <stop offset="0%" style="stop-color:#ffffff;stop-opacity:0.9" />
      <stop offset="100%" style="stop-color:#cccccc;stop-opacity:0.7" />
    </linearGradient>
  </defs>

  <!-- Black background (X brand color) -->
  <rect width="1200" height="630" fill="url(#bg)" />

  <!-- Decorative keyboard keys (subtle) -->
  <g opacity="0.07">
    <rect x="80" y="320" width="48" height="160" rx="4" fill="white"/>
    <rect x="134" y="320" width="48" height="160" rx="4" fill="white"/>
    <rect x="188" y="320" width="48" height="160" rx="4" fill="white"/>
    <rect x="242" y="320" width="48" height="160" rx="4" fill="white"/>
    <rect x="296" y="320" width="48" height="160" rx="4" fill="white"/>
    <rect x="350" y="320" width="48" height="160" rx="4" fill="white"/>
    <rect x="404" y="320" width="48" height="160" rx="4" fill="white"/>
    <rect x="110" y="320" width="30" height="100" rx="3" fill="#333"/>
    <rect x="164" y="320" width="30" height="100" rx="3" fill="#333"/>
    <rect x="272" y="320" width="30" height="100" rx="3" fill="#333"/>
    <rect x="326" y="320" width="30" height="100" rx="3" fill="#333"/>
    <rect x="380" y="320" width="30" height="100" rx="3" fill="#333"/>
    <rect x="458" y="320" width="48" height="160" rx="4" fill="white"/>
    <rect x="512" y="320" width="48" height="160" rx="4" fill="white"/>
    <rect x="566" y="320" width="48" height="160" rx="4" fill="white"/>
    <rect x="620" y="320" width="48" height="160" rx="4" fill="white"/>
    <rect x="674" y="320" width="48" height="160" rx="4" fill="white"/>
    <rect x="728" y="320" width="48" height="160" rx="4" fill="white"/>
    <rect x="782" y="320" width="48" height="160" rx="4" fill="white"/>
    <rect x="488" y="320" width="30" height="100" rx="3" fill="#333"/>
    <rect x="542" y="320" width="30" height="100" rx="3" fill="#333"/>
    <rect x="650" y="320" width="30" height="100" rx="3" fill="#333"/>
    <rect x="704" y="320" width="30" height="100" rx="3" fill="#333"/>
    <rect x="758" y="320" width="30" height="100" rx="3" fill="#333"/>
    <rect x="836" y="320" width="48" height="160" rx="4" fill="white"/>
    <rect x="890" y="320" width="48" height="160" rx="4" fill="white"/>
    <rect x="944" y="320" width="48" height="160" rx="4" fill="white"/>
    <rect x="998" y="320" width="48" height="160" rx="4" fill="white"/>
    <rect x="1052" y="320" width="48" height="160" rx="4" fill="white"/>
    <rect x="866" y="320" width="30" height="100" rx="3" fill="#333"/>
    <rect x="920" y="320" width="30" height="100" rx="3" fill="#333"/>
    <rect x="1028" y="320" width="30" height="100" rx="3" fill="#333"/>
  </g>

  <!-- Large X logo on the right side -->
  <g transform="translate(780, 80) scale(5.5)">
    <path d="M18.244 2.25h3.308l-7.227 8.26 8.502 11.24H16.17l-4.714-6.231-5.401 6.231H2.748l7.73-8.835L2.25 2.25h6.988l4.256 5.624L18.244 2.25zm-1.161 17.52h1.833L7.084 4.126H5.117L17.083 19.77z" fill="white" opacity="0.15"/>
  </g>

  <!-- Accent bar -->
  <rect x="80" y="200" width="200" height="5" rx="3" fill="url(#accent)" />

  <!-- Site name -->
  <text x="80" y="178" font-family="Georgia, serif" font-size="26" fill="#ffffff" letter-spacing="5" font-weight="normal" opacity="0.7">WEB HARMONIUM</text>

  <!-- Main headline -->
  <text x="80" y="268" font-family="Georgia, serif" font-size="70" fill="white" font-weight="bold">Free Online</text>
  <text x="80" y="348" font-family="Georgia, serif" font-size="70" fill="white" font-weight="bold">Harmonium</text>

  <!-- Tagline -->
  <text x="82" y="408" font-family="-apple-system, Arial, sans-serif" font-size="24" fill="#999999">Play in your browser · No download needed</text>

  <!-- URL badge -->
  <rect x="80" y="448" width="320" height="46" rx="23" fill="white" opacity="0.1"/>
  <rect x="80" y="448" width="320" height="46" rx="23" fill="none" stroke="white" stroke-width="1" opacity="0.3"/>
  <text x="240" y="477" font-family="-apple-system, Arial, sans-serif" font-size="19" fill="white" text-anchor="middle" opacity="0.7">web-harmonium.net</text>

  <!-- X logo small badge (bottom right) -->
  <rect x="1100" y="548" width="60" height="60" rx="12" fill="white" opacity="0.1"/>
  <rect x="1100" y="548" width="60" height="60" rx="12" fill="none" stroke="white" stroke-width="1" opacity="0.3"/>
  <g transform="translate(1113, 561) scale(0.85)">
    <path d="M18.244 2.25h3.308l-7.227 8.26 8.502 11.24H16.17l-4.714-6.231-5.401 6.231H2.748l7.73-8.835L2.25 2.25h6.988l4.256 5.624L18.244 2.25zm-1.161 17.52h1.833L7.084 4.126H5.117L17.083 19.77z" fill="white"/>
  </g>
</svg>
