<svg width="180" height="180" viewBox="0 0 180 180" fill="none" xmlns="http://www.w3.org/2000/svg">
  <!-- Background -->
  <rect width="180" height="180" fill="#F3F4F6"/>
  
  <!-- Harmonium body -->
  <rect x="30" y="70" width="120" height="80" rx="8" fill="#8B4513" stroke="#654321" stroke-width="3"/>
  
  <!-- Keyboard keys (white) -->
  <rect x="40" y="80" width="12" height="30" fill="white" stroke="#333" stroke-width="2"/>
  <rect x="55" y="80" width="12" height="30" fill="white" stroke="#333" stroke-width="2"/>
  <rect x="70" y="80" width="12" height="30" fill="white" stroke="#333" stroke-width="2"/>
  <rect x="85" y="80" width="12" height="30" fill="white" stroke="#333" stroke-width="2"/>
  <rect x="100" y="80" width="12" height="30" fill="white" stroke="#333" stroke-width="2"/>
  <rect x="115" y="80" width="12" height="30" fill="white" stroke="#333" stroke-width="2"/>
  <rect x="130" y="80" width="12" height="30" fill="white" stroke="#333" stroke-width="2"/>
  
  <!-- Black keys -->
  <rect x="48" y="80" width="8" height="20" fill="#222"/>
  <rect x="63" y="80" width="8" height="20" fill="#222"/>
  <rect x="93" y="80" width="8" height="20" fill="#222"/>
  <rect x="108" y="80" width="8" height="20" fill="#222"/>
  <rect x="123" y="80" width="8" height="20" fill="#222"/>
  
  <!-- Bellows -->
  <path d="M 40 115 L 60 125 L 80 115 L 100 125 L 120 115 L 140 125" stroke="#654321" stroke-width="4" fill="none"/>
  <path d="M 40 125 L 60 135 L 80 125 L 100 135 L 120 125 L 140 135" stroke="#654321" stroke-width="4" fill="none"/>
  <path d="M 40 135 L 60 145 L 80 135 L 100 145 L 120 135 L 140 145" stroke="#654321" stroke-width="4" fill="none"/>
  
  <!-- Music notes -->
  <circle cx="140" cy="40" r="15" fill="#2563EB"/>
  <ellipse cx="140" cy="40" rx="10" ry="7" fill="#1E40AF"/>
  <rect x="150" y="25" width="4" height="30" fill="#1E40AF"/>
  
  <circle cx="50" cy="50" r="12" fill="#2563EB"/>
  <ellipse cx="50" cy="50" rx="8" ry="5" fill="#1E40AF"/>
  <rect x="58" y="38" width="3" height="24" fill="#1E40AF"/>
</svg>
