<svg width="32" height="32" viewBox="0 0 32 32" fill="none" xmlns="http://www.w3.org/2000/svg">
  <!-- Harmonium body -->
  <rect x="4" y="12" width="24" height="16" rx="2" fill="#8B4513" stroke="#654321" stroke-width="1"/>
  
  <!-- Keyboard keys (white) -->
  <rect x="6" y="14" width="2" height="6" fill="white" stroke="#333" stroke-width="0.5"/>
  <rect x="9" y="14" width="2" height="6" fill="white" stroke="#333" stroke-width="0.5"/>
  <rect x="12" y="14" width="2" height="6" fill="white" stroke="#333" stroke-width="0.5"/>
  <rect x="15" y="14" width="2" height="6" fill="white" stroke="#333" stroke-width="0.5"/>
  <rect x="18" y="14" width="2" height="6" fill="white" stroke="#333" stroke-width="0.5"/>
  <rect x="21" y="14" width="2" height="6" fill="white" stroke="#333" stroke-width="0.5"/>
  <rect x="24" y="14" width="2" height="6" fill="white" stroke="#333" stroke-width="0.5"/>
  
  <!-- Black keys -->
  <rect x="7.5" y="14" width="1.5" height="4" fill="#222"/>
  <rect x="10.5" y="14" width="1.5" height="4" fill="#222"/>
  <rect x="16" y="14" width="1.5" height="4" fill="#222"/>
  <rect x="19" y="14" width="1.5" height="4" fill="#222"/>
  <rect x="22" y="14" width="1.5" height="4" fill="#222"/>
  
  <!-- Bellows -->
  <path d="M 8 22 L 12 24 L 16 22 L 20 24 L 24 22" stroke="#654321" stroke-width="1.5" fill="none"/>
  <path d="M 8 24 L 12 26 L 16 24 L 20 26 L 24 24" stroke="#654321" stroke-width="1.5" fill="none"/>
  
  <!-- Music note decoration -->
  <circle cx="26" cy="8" r="3" fill="#2563EB"/>
  <ellipse cx="26" cy="8" rx="2" ry="1.5" fill="#1E40AF"/>
  <rect x="28" y="5" width="1" height="6" fill="#1E40AF"/>
</svg>
